<?xml version="1.0" encoding="UTF-8"?>
<!DOCTYPE svg PUBLIC "-//W3C//DTD SVG 1.1//EN" "http://www.w3.org/Graphics/SVG/1.1/DTD/svg11.dtd">
<!-- Creator: CorelDRAW X6 -->
<svg xmlns="http://www.w3.org/2000/svg" xml:space="preserve" width="1.00011in" height="0.8in" version="1.1" style="shape-rendering:geometricPrecision; text-rendering:geometricPrecision; image-rendering:optimizeQuality; fill-rule:evenodd; clip-rule:evenodd"
viewBox="0 0 1000 800"
 xmlns:xlink="http://www.w3.org/1999/xlink">
 <defs>
  <style type="text/css">
   <![CDATA[
    .fil0 {fill:#008DD2;fill-rule:nonzero}
    .fil1 {fill:#2B2A29;fill-rule:nonzero}
   ]]>
  </style>
 </defs>
 <g id="Layer_x0020_1">
  <metadata id="CorelCorpID_0Corel-Layer"/>
  <path class="fil0" d="M864 72l0 96c-107,-32 -206,-48 -299,-48 -107,0 -196,26 -265,78 -69,52 -104,117 -104,198 0,80 39,146 117,198 78,51 178,77 300,77 28,0 63,-2 105,-6l0 -180 -196 0 0 -78 355 0 0 316c-109,23 -211,34 -309,34 -161,0 -292,-33 -392,-98 -101,-66 -151,-151 -151,-256 0,-107 50,-194 151,-261 100,-67 232,-100 394,-100 92,0 190,10 295,31z"/>
  <path class="fil1" d="M556 392l-23 -157 21 0 19 130 0 0 23 -97 23 0 22 96 0 0 20 -129 18 0 -26 157 -26 0 -22 -92 0 0 -22 92 -28 0zm259 -5c-17,6 -32,8 -46,8 -23,0 -40,-6 -53,-18 -12,-12 -18,-28 -18,-50 0,-21 6,-38 18,-51 12,-13 27,-20 45,-20 18,0 32,6 41,17 9,11 13,28 13,51l0 8 -90 0c2,30 18,45 49,45 13,0 27,-3 43,-9l0 19zm-90 -73l64 0 0 -3c0,-24 -10,-36 -30,-36 -10,0 -17,3 -23,10 -6,7 -10,17 -11,29zm128 80l0 -194 24 0 0 85c12,-19 26,-28 43,-28 15,0 27,6 36,17 9,12 13,27 13,47 0,22 -5,40 -15,53 -10,14 -24,20 -40,20 -14,0 -26,-6 -36,-18l-6 17 -18 0zm24 -35c11,12 22,18 33,18 11,0 19,-5 25,-14 6,-9 9,-22 9,-39 0,-31 -9,-47 -28,-47 -14,0 -26,8 -38,25l0 57z"/>
 </g>
</svg>
